<svg class="main-svg" xmlns="http://www.w3.org/2000/svg" xmlns:xlink="http://www.w3.org/1999/xlink" width="700" height="620" style="" viewBox="0 0 700 620"><rect x="0" y="0" width="700" height="620" style="fill: rgb(255, 255, 255); fill-opacity: 1;"/><defs id="defs-302981"><g class="clips"><clipPath id="clip302981xyplot" class="plotclip"><rect width="590" height="480"/></clipPath><clipPath class="axesclip" id="clip302981x"><rect x="70" y="0" width="590" height="620"/></clipPath><clipPath class="axesclip" id="clip302981y"><rect x="0" y="70" width="700" height="480"/></clipPath><clipPath class="axesclip" id="clip302981xy"><rect x="70" y="70" width="590" height="480"/></clipPath></g><g class="gradients"/><g class="patterns"/></defs><g class="bglayer"/><g class="layer-below"><g class="imagelayer"/><g class="shapelayer"/></g><g class="cartesianlayer"><g class="subplot xy"><g class="layer-subplot"><g class="shapelayer"/><g class="imagelayer"/></g><g class="minor-gridlayer"><g class="x"/><g class="y"/></g><g class="gridlayer"><g class="x"><path class="xgrid crisp" transform="translate(188,0)" d="M0,70v480" style="stroke: rgb(238, 238, 238); stroke-opacity: 1; stroke-width: 1px;"/><path class="xgrid crisp" transform="translate(306,0)" d="M0,70v480" style="stroke: rgb(238, 238, 238); stroke-opacity: 1; stroke-width: 1px;"/><path class="xgrid crisp" transform="translate(424,0)" d="M0,70v480" style="stroke: rgb(238, 238, 238); stroke-opacity: 1; stroke-width: 1px;"/><path class="xgrid crisp" transform="translate(542,0)" d="M0,70v480" style="stroke: rgb(238, 238, 238); stroke-opacity: 1; stroke-width: 1px;"/></g><g class="y"><path class="ygrid crisp" transform="translate(0,520.85)" d="M70,0h590" style="stroke: rgb(238, 238, 238); stroke-opacity: 1; stroke-width: 1px;"/><path class="ygrid crisp" transform="translate(0,447.73)" d="M70,0h590" style="stroke: rgb(238, 238, 238); stroke-opacity: 1; stroke-width: 1px;"/><path class="ygrid crisp" transform="translate(0,374.61)" d="M70,0h590" style="stroke: rgb(238, 238, 238); stroke-opacity: 1; stroke-width: 1px;"/><path class="ygrid crisp" transform="translate(0,301.49)" d="M70,0h590" style="stroke: rgb(238, 238, 238); stroke-opacity: 1; stroke-width: 1px;"/><path class="ygrid crisp" transform="translate(0,228.37)" d="M70,0h590" style="stroke: rgb(238, 238, 238); stroke-opacity: 1; stroke-width: 1px;"/><path class="ygrid crisp" transform="translate(0,155.25)" d="M70,0h590" style="stroke: rgb(238, 238, 238); stroke-opacity: 1; stroke-width: 1px;"/><path class="ygrid crisp" transform="translate(0,82.13)" d="M70,0h590" style="stroke: rgb(238, 238, 238); stroke-opacity: 1; stroke-width: 1px;"/></g></g><g class="zerolinelayer"/><g class="layer-between"><g class="shapelayer"/><g class="imagelayer"/></g><path class="xlines-below"/><path class="ylines-below"/><g class="overlines-below"/><g class="xaxislayer-below"/><g class="yaxislayer-below"/><g class="overaxes-below"/><g class="overplot"><g class="xy" transform="translate(70,70)" clip-path="url(#clip302981xyplot)"><g class="scatterlayer mlayer"><g class="trace scatter tracebc1482" style="stroke-miterlimit: 2; opacity: 1;"><g class="fills"/><g class="errorbars"/><g class="lines"><path class="js-line" d="M0.27,450.81L3393.81,30.25" style="vector-effect: none; fill: none; stroke: rgb(136, 136, 136); stroke-opacity: 1; stroke-dasharray: 9px, 9px; stroke-width: 1.5px; opacity: 1;"/></g><g class="points"/><g class="text"/></g><g class="trace scatter trace02d0d1" style="stroke-miterlimit: 2; opacity: 1;"><g class="fills"/><g class="errorbars"/><g class="lines"/><g class="points"><path class="point" transform="translate(329.93,444.17)" d="M-5.77,-2.5H5.77L0,5Z" style="opacity: 0.9; stroke-width: 0.8px; fill: rgb(96, 198, 89); fill-opacity: 1; stroke: rgb(0, 0, 0); stroke-opacity: 0.45;"/><path class="point" transform="translate(16.52,330.41)" d="M-5.77,-2.5H5.77L0,5Z" style="opacity: 0.9; stroke-width: 0.8px; fill: rgb(96, 198, 89); fill-opacity: 1; stroke: rgb(0, 0, 0); stroke-opacity: 0.45;"/><path class="point" transform="translate(47.85,325.42)" d="M-5.77,-2.5H5.77L0,5Z" style="opacity: 0.9; stroke-width: 0.8px; fill: rgb(96, 198, 89); fill-opacity: 1; stroke: rgb(0, 0, 0); stroke-opacity: 0.45;"/><path class="point" transform="translate(332.88,272.5)" d="M-5.77,-2.5H5.77L0,5Z" style="opacity: 0.9; stroke-width: 0.8px; fill: rgb(96, 198, 89); fill-opacity: 1; stroke: rgb(0, 0, 0); stroke-opacity: 0.45;"/><path class="point" transform="translate(256.12,433.98)" d="M-5.77,-2.5H5.77L0,5Z" style="opacity: 0.9; stroke-width: 0.8px; fill: rgb(96, 198, 89); fill-opacity: 1; stroke: rgb(0, 0, 0); stroke-opacity: 0.45;"/><path class="point" transform="translate(157.59,410.32)" d="M-5.77,-2.5H5.77L0,5Z" style="opacity: 0.9; stroke-width: 0.8px; fill: rgb(96, 198, 89); fill-opacity: 1; stroke: rgb(0, 0, 0); stroke-opacity: 0.45;"/><path class="point" transform="translate(80.15,435.43)" d="M-5.77,-2.5H5.77L0,5Z" style="opacity: 0.9; stroke-width: 0.8px; fill: rgb(96, 198, 89); fill-opacity: 1; stroke: rgb(0, 0, 0); stroke-opacity: 0.45;"/><path class="point" transform="translate(119.18,364.32)" d="M-5.77,-2.5H5.77L0,5Z" style="opacity: 0.9; stroke-width: 0.8px; fill: rgb(96, 198, 89); fill-opacity: 1; stroke: rgb(0, 0, 0); stroke-opacity: 0.45;"/><path class="point" transform="translate(47.32,430.2)" d="M-5.77,-2.5H5.77L0,5Z" style="opacity: 0.9; stroke-width: 0.8px; fill: rgb(96, 198, 89); fill-opacity: 1; stroke: rgb(0, 0, 0); stroke-opacity: 0.45;"/><path class="point" transform="translate(121.57,429.88)" d="M-5.77,-2.5H5.77L0,5Z" style="opacity: 0.9; stroke-width: 0.8px; fill: rgb(96, 198, 89); fill-opacity: 1; stroke: rgb(0, 0, 0); stroke-opacity: 0.45;"/><path class="point" transform="translate(140.6,437.7)" d="M-5.77,-2.5H5.77L0,5Z" style="opacity: 0.9; stroke-width: 0.8px; fill: rgb(96, 198, 89); fill-opacity: 1; stroke: rgb(0, 0, 0); stroke-opacity: 0.45;"/><path class="point" transform="translate(71.15,429.39)" d="M-5.77,-2.5H5.77L0,5Z" style="opacity: 0.9; stroke-width: 0.8px; fill: rgb(96, 198, 89); fill-opacity: 1; stroke: rgb(0, 0, 0); stroke-opacity: 0.45;"/><path class="point" transform="translate(262.73,403.58)" d="M-5.77,-2.5H5.77L0,5Z" style="opacity: 0.9; stroke-width: 0.8px; fill: rgb(96, 198, 89); fill-opacity: 1; stroke: rgb(0, 0, 0); stroke-opacity: 0.45;"/><path class="point" transform="translate(124.25,432.26)" d="M-5.77,-2.5H5.77L0,5Z" style="opacity: 0.9; stroke-width: 0.8px; fill: rgb(96, 198, 89); fill-opacity: 1; stroke: rgb(0, 0, 0); stroke-opacity: 0.45;"/><path class="point" transform="translate(190.92,355.43)" d="M-5.77,-2.5H5.77L0,5Z" style="opacity: 0.9; stroke-width: 0.8px; fill: rgb(96, 198, 89); fill-opacity: 1; stroke: rgb(0, 0, 0); stroke-opacity: 0.45;"/><path class="point" transform="translate(130.39,444.74)" d="M-5.77,-2.5H5.77L0,5Z" style="opacity: 0.9; stroke-width: 0.8px; fill: rgb(96, 198, 89); fill-opacity: 1; stroke: rgb(0, 0, 0); stroke-opacity: 0.45;"/><path class="point" transform="translate(260.75,287.19)" d="M-5.77,-2.5H5.77L0,5Z" style="opacity: 0.9; stroke-width: 0.8px; fill: rgb(96, 198, 89); fill-opacity: 1; stroke: rgb(0, 0, 0); stroke-opacity: 0.45;"/><path class="point" transform="translate(16.33,432.97)" d="M-5.77,-2.5H5.77L0,5Z" style="opacity: 0.9; stroke-width: 0.8px; fill: rgb(96, 198, 89); fill-opacity: 1; stroke: rgb(0, 0, 0); stroke-opacity: 0.45;"/><path class="point" transform="translate(100.3,404.58)" d="M-5.77,-2.5H5.77L0,5Z" style="opacity: 0.9; stroke-width: 0.8px; fill: rgb(96, 198, 89); fill-opacity: 1; stroke: rgb(0, 0, 0); stroke-opacity: 0.45;"/><path class="point" transform="translate(309.31,419.85)" d="M-5.77,-2.5H5.77L0,5Z" style="opacity: 0.9; stroke-width: 0.8px; fill: rgb(96, 198, 89); fill-opacity: 1; stroke: rgb(0, 0, 0); stroke-opacity: 0.45;"/><path class="point" transform="translate(147.21,436.55)" d="M-5.77,-2.5H5.77L0,5Z" style="opacity: 0.9; stroke-width: 0.8px; fill: rgb(96, 198, 89); fill-opacity: 1; stroke: rgb(0, 0, 0); stroke-opacity: 0.45;"/><path class="point" transform="translate(77.9,437.99)" d="M-5.77,-2.5H5.77L0,5Z" style="opacity: 0.9; stroke-width: 0.8px; fill: rgb(96, 198, 89); fill-opacity: 1; stroke: rgb(0, 0, 0); stroke-opacity: 0.45;"/><path class="point" transform="translate(7.7,376.7)" d="M-5.77,-2.5H5.77L0,5Z" style="opacity: 0.9; stroke-width: 0.8px; fill: rgb(96, 198, 89); fill-opacity: 1; stroke: rgb(0, 0, 0); stroke-opacity: 0.45;"/><path class="point" transform="translate(467.34,431.4)" d="M-5.77,-2.5H5.77L0,5Z" style="opacity: 0.9; stroke-width: 0.8px; fill: rgb(96, 198, 89); fill-opacity: 1; stroke: rgb(0, 0, 0); stroke-opacity: 0.45;"/><path class="point" transform="translate(131.28,394.81)" d="M-5.77,-2.5H5.77L0,5Z" style="opacity: 0.9; stroke-width: 0.8px; fill: rgb(96, 198, 89); fill-opacity: 1; stroke: rgb(0, 0, 0); stroke-opacity: 0.45;"/><path class="point" transform="translate(113.34,428.03)" d="M-5.77,-2.5H5.77L0,5Z" style="opacity: 0.9; stroke-width: 0.8px; fill: rgb(96, 198, 89); fill-opacity: 1; stroke: rgb(0, 0, 0); stroke-opacity: 0.45;"/><path class="point" transform="translate(101.6,433.49)" d="M-5.77,-2.5H5.77L0,5Z" style="opacity: 0.9; stroke-width: 0.8px; fill: rgb(96, 198, 89); fill-opacity: 1; stroke: rgb(0, 0, 0); stroke-opacity: 0.45;"/><path class="point" transform="translate(45.43,372.69)" d="M-5.77,-2.5H5.77L0,5Z" style="opacity: 0.9; stroke-width: 0.8px; fill: rgb(96, 198, 89); fill-opacity: 1; stroke: rgb(0, 0, 0); stroke-opacity: 0.45;"/><path class="point" transform="translate(122.48,363.92)" d="M-5.77,-2.5H5.77L0,5Z" style="opacity: 0.9; stroke-width: 0.8px; fill: rgb(96, 198, 89); fill-opacity: 1; stroke: rgb(0, 0, 0); stroke-opacity: 0.45;"/><path class="point" transform="translate(132.93,362.67)" d="M-5.77,-2.5H5.77L0,5Z" style="opacity: 0.9; stroke-width: 0.8px; fill: rgb(96, 198, 89); fill-opacity: 1; stroke: rgb(0, 0, 0); stroke-opacity: 0.45;"/><path class="point" transform="translate(95.31,317.56)" d="M-5.77,-2.5H5.77L0,5Z" style="opacity: 0.9; stroke-width: 0.8px; fill: rgb(96, 198, 89); fill-opacity: 1; stroke: rgb(0, 0, 0); stroke-opacity: 0.45;"/><path class="point" transform="translate(123.49,432.9)" d="M-5.77,-2.5H5.77L0,5Z" style="opacity: 0.9; stroke-width: 0.8px; fill: rgb(96, 198, 89); fill-opacity: 1; stroke: rgb(0, 0, 0); stroke-opacity: 0.45;"/><path class="point" transform="translate(116.26,448.77)" d="M-5.77,-2.5H5.77L0,5Z" style="opacity: 0.9; stroke-width: 0.8px; fill: rgb(96, 198, 89); fill-opacity: 1; stroke: rgb(0, 0, 0); stroke-opacity: 0.45;"/><path class="point" transform="translate(153.64,449.02)" d="M-5.77,-2.5H5.77L0,5Z" style="opacity: 0.9; stroke-width: 0.8px; fill: rgb(96, 198, 89); fill-opacity: 1; stroke: rgb(0, 0, 0); stroke-opacity: 0.45;"/><path class="point" transform="translate(89.84,439.91)" d="M-5.77,-2.5H5.77L0,5Z" style="opacity: 0.9; stroke-width: 0.8px; fill: rgb(96, 198, 89); fill-opacity: 1; stroke: rgb(0, 0, 0); stroke-opacity: 0.45;"/><path class="point" transform="translate(128.44,311.85)" d="M-5.77,-2.5H5.77L0,5Z" style="opacity: 0.9; stroke-width: 0.8px; fill: rgb(96, 198, 89); fill-opacity: 1; stroke: rgb(0, 0, 0); stroke-opacity: 0.45;"/><path class="point" transform="translate(143.61,437.64)" d="M-5.77,-2.5H5.77L0,5Z" style="opacity: 0.9; stroke-width: 0.8px; fill: rgb(96, 198, 89); fill-opacity: 1; stroke: rgb(0, 0, 0); stroke-opacity: 0.45;"/><path class="point" transform="translate(19,398.6)" d="M-5.77,-2.5H5.77L0,5Z" style="opacity: 0.9; stroke-width: 0.8px; fill: rgb(96, 198, 89); fill-opacity: 1; stroke: rgb(0, 0, 0); stroke-opacity: 0.45;"/><path class="point" transform="translate(442.77,389.58)" d="M-5.77,-2.5H5.77L0,5Z" style="opacity: 0.9; stroke-width: 0.8px; fill: rgb(96, 198, 89); fill-opacity: 1; stroke: rgb(0, 0, 0); stroke-opacity: 0.45;"/><path class="point" transform="translate(183.2,300.7)" d="M-5.77,-2.5H5.77L0,5Z" style="opacity: 0.9; stroke-width: 0.8px; fill: rgb(96, 198, 89); fill-opacity: 1; stroke: rgb(0, 0, 0); stroke-opacity: 0.45;"/><path class="point" transform="translate(130.69,420.19)" d="M-5.77,-2.5H5.77L0,5Z" style="opacity: 0.9; stroke-width: 0.8px; fill: rgb(96, 198, 89); fill-opacity: 1; stroke: rgb(0, 0, 0); stroke-opacity: 0.45;"/><path class="point" transform="translate(261.25,427.98)" d="M-5.77,-2.5H5.77L0,5Z" style="opacity: 0.9; stroke-width: 0.8px; fill: rgb(96, 198, 89); fill-opacity: 1; stroke: rgb(0, 0, 0); stroke-opacity: 0.45;"/><path class="point" transform="translate(46.91,447.4)" d="M-5.77,-2.5H5.77L0,5Z" style="opacity: 0.9; stroke-width: 0.8px; fill: rgb(96, 198, 89); fill-opacity: 1; stroke: rgb(0, 0, 0); stroke-opacity: 0.45;"/><path class="point" transform="translate(338.69,398.91)" d="M-5.77,-2.5H5.77L0,5Z" style="opacity: 0.9; stroke-width: 0.8px; fill: rgb(96, 198, 89); fill-opacity: 1; stroke: rgb(0, 0, 0); stroke-opacity: 0.45;"/><path class="point" transform="translate(136.88,441.32)" d="M-5.77,-2.5H5.77L0,5Z" style="opacity: 0.9; stroke-width: 0.8px; fill: rgb(96, 198, 89); fill-opacity: 1; stroke: rgb(0, 0, 0); stroke-opacity: 0.45;"/><path class="point" transform="translate(100.39,421.26)" d="M-5.77,-2.5H5.77L0,5Z" style="opacity: 0.9; stroke-width: 0.8px; fill: rgb(96, 198, 89); fill-opacity: 1; stroke: rgb(0, 0, 0); stroke-opacity: 0.45;"/><path class="point" transform="translate(386.75,431.73)" d="M-5.77,-2.5H5.77L0,5Z" style="opacity: 0.9; stroke-width: 0.8px; fill: rgb(96, 198, 89); fill-opacity: 1; stroke: rgb(0, 0, 0); stroke-opacity: 0.45;"/><path class="point" transform="translate(50.05,444.76)" d="M-5.77,-2.5H5.77L0,5Z" style="opacity: 0.9; stroke-width: 0.8px; fill: rgb(96, 198, 89); fill-opacity: 1; stroke: rgb(0, 0, 0); stroke-opacity: 0.45;"/><path class="point" transform="translate(62.6,439.45)" d="M-5.77,-2.5H5.77L0,5Z" style="opacity: 0.9; stroke-width: 0.8px; fill: rgb(96, 198, 89); fill-opacity: 1; stroke: rgb(0, 0, 0); stroke-opacity: 0.45;"/><path class="point" transform="translate(369.64,438.2)" d="M-5.77,-2.5H5.77L0,5Z" style="opacity: 0.9; stroke-width: 0.8px; fill: rgb(96, 198, 89); fill-opacity: 1; stroke: rgb(0, 0, 0); stroke-opacity: 0.45;"/><path class="point" transform="translate(57.47,400.47)" d="M-5.77,-2.5H5.77L0,5Z" style="opacity: 0.9; stroke-width: 0.8px; fill: rgb(96, 198, 89); fill-opacity: 1; stroke: rgb(0, 0, 0); stroke-opacity: 0.45;"/><path class="point" transform="translate(223.06,70.71)" d="M-5.77,-2.5H5.77L0,5Z" style="opacity: 0.9; stroke-width: 0.8px; fill: rgb(96, 198, 89); fill-opacity: 1; stroke: rgb(0, 0, 0); stroke-opacity: 0.45;"/><path class="point" transform="translate(249.27,404.5)" d="M-5.77,-2.5H5.77L0,5Z" style="opacity: 0.9; stroke-width: 0.8px; fill: rgb(96, 198, 89); fill-opacity: 1; stroke: rgb(0, 0, 0); stroke-opacity: 0.45;"/><path class="point" transform="translate(338.9,398.06)" d="M-5.77,-2.5H5.77L0,5Z" style="opacity: 0.9; stroke-width: 0.8px; fill: rgb(96, 198, 89); fill-opacity: 1; stroke: rgb(0, 0, 0); stroke-opacity: 0.45;"/><path class="point" transform="translate(371.05,395.56)" d="M-5.77,-2.5H5.77L0,5Z" style="opacity: 0.9; stroke-width: 0.8px; fill: rgb(96, 198, 89); fill-opacity: 1; stroke: rgb(0, 0, 0); stroke-opacity: 0.45;"/><path class="point" transform="translate(202.78,427.14)" d="M-5.77,-2.5H5.77L0,5Z" style="opacity: 0.9; stroke-width: 0.8px; fill: rgb(96, 198, 89); fill-opacity: 1; stroke: rgb(0, 0, 0); stroke-opacity: 0.45;"/><path class="point" transform="translate(320.19,440.83)" d="M-5.77,-2.5H5.77L0,5Z" style="opacity: 0.9; stroke-width: 0.8px; fill: rgb(96, 198, 89); fill-opacity: 1; stroke: rgb(0, 0, 0); stroke-opacity: 0.45;"/><path class="point" transform="translate(221.63,406.33)" d="M-5.77,-2.5H5.77L0,5Z" style="opacity: 0.9; stroke-width: 0.8px; fill: rgb(96, 198, 89); fill-opacity: 1; stroke: rgb(0, 0, 0); stroke-opacity: 0.45;"/><path class="point" transform="translate(188.03,408.47)" d="M-5.77,-2.5H5.77L0,5Z" style="opacity: 0.9; stroke-width: 0.8px; fill: rgb(96, 198, 89); fill-opacity: 1; stroke: rgb(0, 0, 0); stroke-opacity: 0.45;"/><path class="point" transform="translate(54.84,399.9)" d="M-5.77,-2.5H5.77L0,5Z" style="opacity: 0.9; stroke-width: 0.8px; fill: rgb(96, 198, 89); fill-opacity: 1; stroke: rgb(0, 0, 0); stroke-opacity: 0.45;"/><path class="point" transform="translate(6.69,152.58)" d="M-5.77,-2.5H5.77L0,5Z" style="opacity: 0.9; stroke-width: 0.8px; fill: rgb(96, 198, 89); fill-opacity: 1; stroke: rgb(0, 0, 0); stroke-opacity: 0.45;"/><path class="point" transform="translate(63.07,321.78)" d="M-5.77,-2.5H5.77L0,5Z" style="opacity: 0.9; stroke-width: 0.8px; fill: rgb(96, 198, 89); fill-opacity: 1; stroke: rgb(0, 0, 0); stroke-opacity: 0.45;"/><path class="point" transform="translate(128.97,368.8)" d="M-5.77,-2.5H5.77L0,5Z" style="opacity: 0.9; stroke-width: 0.8px; fill: rgb(96, 198, 89); fill-opacity: 1; stroke: rgb(0, 0, 0); stroke-opacity: 0.45;"/><path class="point" transform="translate(99.65,213.94)" d="M-5.77,-2.5H5.77L0,5Z" style="opacity: 0.9; stroke-width: 0.8px; fill: rgb(96, 198, 89); fill-opacity: 1; stroke: rgb(0, 0, 0); stroke-opacity: 0.45;"/><path class="point" transform="translate(127.71,433.32)" d="M-5.77,-2.5H5.77L0,5Z" style="opacity: 0.9; stroke-width: 0.8px; fill: rgb(96, 198, 89); fill-opacity: 1; stroke: rgb(0, 0, 0); stroke-opacity: 0.45;"/><path class="point" transform="translate(172.1,304.04)" d="M-5.77,-2.5H5.77L0,5Z" style="opacity: 0.9; stroke-width: 0.8px; fill: rgb(96, 198, 89); fill-opacity: 1; stroke: rgb(0, 0, 0); stroke-opacity: 0.45;"/><path class="point" transform="translate(188.8,408.42)" d="M-5.77,-2.5H5.77L0,5Z" style="opacity: 0.9; stroke-width: 0.8px; fill: rgb(96, 198, 89); fill-opacity: 1; stroke: rgb(0, 0, 0); stroke-opacity: 0.45;"/><path class="point" transform="translate(163.16,426.2)" d="M-5.77,-2.5H5.77L0,5Z" style="opacity: 0.9; stroke-width: 0.8px; fill: rgb(96, 198, 89); fill-opacity: 1; stroke: rgb(0, 0, 0); stroke-opacity: 0.45;"/><path class="point" transform="translate(246.91,425.52)" d="M-5.77,-2.5H5.77L0,5Z" style="opacity: 0.9; stroke-width: 0.8px; fill: rgb(96, 198, 89); fill-opacity: 1; stroke: rgb(0, 0, 0); stroke-opacity: 0.45;"/><path class="point" transform="translate(62.78,415.61)" d="M-5.77,-2.5H5.77L0,5Z" style="opacity: 0.9; stroke-width: 0.8px; fill: rgb(96, 198, 89); fill-opacity: 1; stroke: rgb(0, 0, 0); stroke-opacity: 0.45;"/><path class="point" transform="translate(35.59,30.25)" d="M-5.77,-2.5H5.77L0,5Z" style="opacity: 0.9; stroke-width: 0.8px; fill: rgb(96, 198, 89); fill-opacity: 1; stroke: rgb(0, 0, 0); stroke-opacity: 0.45;"/><path class="point" transform="translate(160.19,416.08)" d="M-5.77,-2.5H5.77L0,5Z" style="opacity: 0.9; stroke-width: 0.8px; fill: rgb(96, 198, 89); fill-opacity: 1; stroke: rgb(0, 0, 0); stroke-opacity: 0.45;"/><path class="point" transform="translate(196,432.46)" d="M-5.77,-2.5H5.77L0,5Z" style="opacity: 0.9; stroke-width: 0.8px; fill: rgb(96, 198, 89); fill-opacity: 1; stroke: rgb(0, 0, 0); stroke-opacity: 0.45;"/><path class="point" transform="translate(136.59,434.05)" d="M-5.77,-2.5H5.77L0,5Z" style="opacity: 0.9; stroke-width: 0.8px; fill: rgb(96, 198, 89); fill-opacity: 1; stroke: rgb(0, 0, 0); stroke-opacity: 0.45;"/><path class="point" transform="translate(84.76,431.01)" d="M-5.77,-2.5H5.77L0,5Z" style="opacity: 0.9; stroke-width: 0.8px; fill: rgb(96, 198, 89); fill-opacity: 1; stroke: rgb(0, 0, 0); stroke-opacity: 0.45;"/><path class="point" transform="translate(158.65,410.26)" d="M-5.77,-2.5H5.77L0,5Z" style="opacity: 0.9; stroke-width: 0.8px; fill: rgb(96, 198, 89); fill-opacity: 1; stroke: rgb(0, 0, 0); stroke-opacity: 0.45;"/></g><g class="text"/></g><g class="trace scatter trace0fa91f" style="stroke-miterlimit: 2; opacity: 1;"><g class="fills"/><g class="errorbars"/><g class="lines"/><g class="points"><path class="point" transform="translate(162.1,330.18)" d="M-5.77,2.5H5.77L0,-5Z" style="opacity: 0.9; stroke-width: 0.8px; fill: rgb(204, 226, 38); fill-opacity: 1; stroke: rgb(0, 0, 0); stroke-opacity: 0.45;"/><path class="point" transform="translate(163.55,447.04)" d="M-5.77,2.5H5.77L0,-5Z" style="opacity: 0.9; stroke-width: 0.8px; fill: rgb(204, 226, 38); fill-opacity: 1; stroke: rgb(0, 0, 0); stroke-opacity: 0.45;"/><path class="point" transform="translate(104.78,436.36)" d="M-5.77,2.5H5.77L0,-5Z" style="opacity: 0.9; stroke-width: 0.8px; fill: rgb(204, 226, 38); fill-opacity: 1; stroke: rgb(0, 0, 0); stroke-opacity: 0.45;"/><path class="point" transform="translate(116.58,380.27)" d="M-5.77,2.5H5.77L0,-5Z" style="opacity: 0.9; stroke-width: 0.8px; fill: rgb(204, 226, 38); fill-opacity: 1; stroke: rgb(0, 0, 0); stroke-opacity: 0.45;"/><path class="point" transform="translate(150.72,447.8)" d="M-5.77,2.5H5.77L0,-5Z" style="opacity: 0.9; stroke-width: 0.8px; fill: rgb(204, 226, 38); fill-opacity: 1; stroke: rgb(0, 0, 0); stroke-opacity: 0.45;"/><path class="point" transform="translate(44.13,352.83)" d="M-5.77,2.5H5.77L0,-5Z" style="opacity: 0.9; stroke-width: 0.8px; fill: rgb(204, 226, 38); fill-opacity: 1; stroke: rgb(0, 0, 0); stroke-opacity: 0.45;"/><path class="point" transform="translate(66.67,441.43)" d="M-5.77,2.5H5.77L0,-5Z" style="opacity: 0.9; stroke-width: 0.8px; fill: rgb(204, 226, 38); fill-opacity: 1; stroke: rgb(0, 0, 0); stroke-opacity: 0.45;"/><path class="point" transform="translate(61.36,437.74)" d="M-5.77,2.5H5.77L0,-5Z" style="opacity: 0.9; stroke-width: 0.8px; fill: rgb(204, 226, 38); fill-opacity: 1; stroke: rgb(0, 0, 0); stroke-opacity: 0.45;"/><path class="point" transform="translate(239.6,413.86)" d="M-5.77,2.5H5.77L0,-5Z" style="opacity: 0.9; stroke-width: 0.8px; fill: rgb(204, 226, 38); fill-opacity: 1; stroke: rgb(0, 0, 0); stroke-opacity: 0.45;"/></g><g class="text"/></g><g class="trace scatter trace5d4b42" style="stroke-miterlimit: 2; opacity: 1;"><g class="fills"/><g class="errorbars"/><g class="lines"/><g class="points"><path class="point" transform="translate(99.86,439.7)" d="M6.5,0L0,6.5L-6.5,0L0,-6.5Z" style="opacity: 0.9; stroke-width: 0.8px; fill: rgb(249, 232, 20); fill-opacity: 1; stroke: rgb(0, 0, 0); stroke-opacity: 0.45;"/><path class="point" transform="translate(48.86,398.68)" d="M6.5,0L0,6.5L-6.5,0L0,-6.5Z" style="opacity: 0.9; stroke-width: 0.8px; fill: rgb(249, 232, 20); fill-opacity: 1; stroke: rgb(0, 0, 0); stroke-opacity: 0.45;"/><path class="point" transform="translate(49.88,448.63)" d="M6.5,0L0,6.5L-6.5,0L0,-6.5Z" style="opacity: 0.9; stroke-width: 0.8px; fill: rgb(249, 232, 20); fill-opacity: 1; stroke: rgb(0, 0, 0); stroke-opacity: 0.45;"/><path class="point" transform="translate(59.06,397.9)" d="M6.5,0L0,6.5L-6.5,0L0,-6.5Z" style="opacity: 0.9; stroke-width: 0.8px; fill: rgb(249, 232, 20); fill-opacity: 1; stroke: rgb(0, 0, 0); stroke-opacity: 0.45;"/><path class="point" transform="translate(30.24,448.7)" d="M6.5,0L0,6.5L-6.5,0L0,-6.5Z" style="opacity: 0.9; stroke-width: 0.8px; fill: rgb(249, 232, 20); fill-opacity: 1; stroke: rgb(0, 0, 0); stroke-opacity: 0.45;"/><path class="point" transform="translate(0.27,370.88)" d="M6.5,0L0,6.5L-6.5,0L0,-6.5Z" style="opacity: 0.9; stroke-width: 0.8px; fill: rgb(249, 232, 20); fill-opacity: 1; stroke: rgb(0, 0, 0); stroke-opacity: 0.45;"/><path class="point" transform="translate(60.74,442.88)" d="M6.5,0L0,6.5L-6.5,0L0,-6.5Z" style="opacity: 0.9; stroke-width: 0.8px; fill: rgb(249, 232, 20); fill-opacity: 1; stroke: rgb(0, 0, 0); stroke-opacity: 0.45;"/><path class="point" transform="translate(42.89,402.63)" d="M6.5,0L0,6.5L-6.5,0L0,-6.5Z" style="opacity: 0.9; stroke-width: 0.8px; fill: rgb(249, 232, 20); fill-opacity: 1; stroke: rgb(0, 0, 0); stroke-opacity: 0.45;"/><path class="point" transform="translate(77.94,416.84)" d="M6.5,0L0,6.5L-6.5,0L0,-6.5Z" style="opacity: 0.9; stroke-width: 0.8px; fill: rgb(249, 232, 20); fill-opacity: 1; stroke: rgb(0, 0, 0); stroke-opacity: 0.45;"/><path class="point" transform="translate(5.42,370.31)" d="M6.5,0L0,6.5L-6.5,0L0,-6.5Z" style="opacity: 0.9; stroke-width: 0.8px; fill: rgb(249, 232, 20); fill-opacity: 1; stroke: rgb(0, 0, 0); stroke-opacity: 0.45;"/></g><g class="text"/></g><g class="trace scatter trace4c579d" style="stroke-miterlimit: 2; opacity: 1;"><g class="fills"/><g class="errorbars"/><g class="lines"/><g class="points"><path class="point" transform="translate(50.51,442.56)" d="M5,5H-5V-5H5Z" style="opacity: 0.9; stroke-width: 0.8px; fill: rgb(252, 127, 63); fill-opacity: 1; stroke: rgb(0, 0, 0); stroke-opacity: 0.45;"/><path class="point" transform="translate(54.04,447)" d="M5,5H-5V-5H5Z" style="opacity: 0.9; stroke-width: 0.8px; fill: rgb(252, 127, 63); fill-opacity: 1; stroke: rgb(0, 0, 0); stroke-opacity: 0.45;"/><path class="point" transform="translate(11.8,384.44)" d="M5,5H-5V-5H5Z" style="opacity: 0.9; stroke-width: 0.8px; fill: rgb(252, 127, 63); fill-opacity: 1; stroke: rgb(0, 0, 0); stroke-opacity: 0.45;"/><path class="point" transform="translate(187.06,449.75)" d="M5,5H-5V-5H5Z" style="opacity: 0.9; stroke-width: 0.8px; fill: rgb(252, 127, 63); fill-opacity: 1; stroke: rgb(0, 0, 0); stroke-opacity: 0.45;"/><path class="point" transform="translate(226.91,449.68)" d="M5,5H-5V-5H5Z" style="opacity: 0.9; stroke-width: 0.8px; fill: rgb(252, 127, 63); fill-opacity: 1; stroke: rgb(0, 0, 0); stroke-opacity: 0.45;"/><path class="point" transform="translate(70.15,407.21)" d="M5,5H-5V-5H5Z" style="opacity: 0.9; stroke-width: 0.8px; fill: rgb(252, 127, 63); fill-opacity: 1; stroke: rgb(0, 0, 0); stroke-opacity: 0.45;"/><path class="point" transform="translate(268.63,442.6)" d="M5,5H-5V-5H5Z" style="opacity: 0.9; stroke-width: 0.8px; fill: rgb(252, 127, 63); fill-opacity: 1; stroke: rgb(0, 0, 0); stroke-opacity: 0.45;"/><path class="point" transform="translate(53.81,436.5)" d="M5,5H-5V-5H5Z" style="opacity: 0.9; stroke-width: 0.8px; fill: rgb(252, 127, 63); fill-opacity: 1; stroke: rgb(0, 0, 0); stroke-opacity: 0.45;"/><path class="point" transform="translate(33.87,442.77)" d="M5,5H-5V-5H5Z" style="opacity: 0.9; stroke-width: 0.8px; fill: rgb(252, 127, 63); fill-opacity: 1; stroke: rgb(0, 0, 0); stroke-opacity: 0.45;"/></g><g class="text"/></g><g class="trace scatter trace0c8ddc" style="stroke-miterlimit: 2; opacity: 1;"><g class="fills"/><g class="errorbars"/><g class="lines"/><g class="points"><path class="point" transform="translate(18.23,418.17)" d="M5,0A5,5 0 1,1 0,-5A5,5 0 0,1 5,0Z" style="opacity: 0.9; stroke-width: 0.8px; fill: rgb(216, 30, 5); fill-opacity: 1; stroke: rgb(0, 0, 0); stroke-opacity: 0.45;"/><path class="point" transform="translate(30.74,444.41)" d="M5,0A5,5 0 1,1 0,-5A5,5 0 0,1 5,0Z" style="opacity: 0.9; stroke-width: 0.8px; fill: rgb(216, 30, 5); fill-opacity: 1; stroke: rgb(0, 0, 0); stroke-opacity: 0.45;"/><path class="point" transform="translate(24.96,395.76)" d="M5,0A5,5 0 1,1 0,-5A5,5 0 0,1 5,0Z" style="opacity: 0.9; stroke-width: 0.8px; fill: rgb(216, 30, 5); fill-opacity: 1; stroke: rgb(0, 0, 0); stroke-opacity: 0.45;"/><path class="point" transform="translate(169.63,437.1)" d="M5,0A5,5 0 1,1 0,-5A5,5 0 0,1 5,0Z" style="opacity: 0.9; stroke-width: 0.8px; fill: rgb(216, 30, 5); fill-opacity: 1; stroke: rgb(0, 0, 0); stroke-opacity: 0.45;"/><path class="point" transform="translate(117.82,438.15)" d="M5,0A5,5 0 1,1 0,-5A5,5 0 0,1 5,0Z" style="opacity: 0.9; stroke-width: 0.8px; fill: rgb(216, 30, 5); fill-opacity: 1; stroke: rgb(0, 0, 0); stroke-opacity: 0.45;"/></g><g class="text"/></g></g></g></g><g class="zerolinelayer-above"/><path class="xlines-above crisp" d="M0,0" style="fill: none;"/><path class="ylines-above crisp" d="M0,0" style="fill: none;"/><g class="overlines-above"/><g class="xaxislayer-above"><g class="xtick"><text text-anchor="middle" x="0" y="562" transform="translate(70,0)" style="font-family: Arial; font-size: 11px; fill: rgb(42, 63, 95); fill-opacity: 1; white-space: pre;">0</text></g><g class="xtick"><text text-anchor="middle" x="0" y="562" style="font-family: Arial; font-size: 11px; fill: rgb(42, 63, 95); fill-opacity: 1; white-space: pre;" transform="translate(188,0)">2</text></g><g class="xtick"><text text-anchor="middle" x="0" y="562" style="font-family: Arial; font-size: 11px; fill: rgb(42, 63, 95); fill-opacity: 1; white-space: pre;" transform="translate(306,0)">4</text></g><g class="xtick"><text text-anchor="middle" x="0" y="562" style="font-family: Arial; font-size: 11px; fill: rgb(42, 63, 95); fill-opacity: 1; white-space: pre;" transform="translate(424,0)">6</text></g><g class="xtick"><text text-anchor="middle" x="0" y="562" style="font-family: Arial; font-size: 11px; fill: rgb(42, 63, 95); fill-opacity: 1; white-space: pre;" transform="translate(542,0)">8</text></g><g class="xtick"><text text-anchor="middle" x="0" y="562" style="font-family: Arial; font-size: 11px; fill: rgb(42, 63, 95); fill-opacity: 1; white-space: pre;" transform="translate(660,0)">10</text></g></g><g class="yaxislayer-above"><g class="ytick"><text text-anchor="end" x="69" y="3.8499999999999996" transform="translate(0,520.85)" style="font-family: Arial; font-size: 11px; fill: rgb(42, 63, 95); fill-opacity: 1; white-space: pre;">0</text></g><g class="ytick"><text text-anchor="end" x="69" y="3.8499999999999996" style="font-family: Arial; font-size: 11px; fill: rgb(42, 63, 95); fill-opacity: 1; white-space: pre;" transform="translate(0,447.73)">10</text></g><g class="ytick"><text text-anchor="end" x="69" y="3.8499999999999996" style="font-family: Arial; font-size: 11px; fill: rgb(42, 63, 95); fill-opacity: 1; white-space: pre;" transform="translate(0,374.61)">20</text></g><g class="ytick"><text text-anchor="end" x="69" y="3.8499999999999996" style="font-family: Arial; font-size: 11px; fill: rgb(42, 63, 95); fill-opacity: 1; white-space: pre;" transform="translate(0,301.49)">30</text></g><g class="ytick"><text text-anchor="end" x="69" y="3.8499999999999996" style="font-family: Arial; font-size: 11px; fill: rgb(42, 63, 95); fill-opacity: 1; white-space: pre;" transform="translate(0,228.37)">40</text></g><g class="ytick"><text text-anchor="end" x="69" y="3.8499999999999996" style="font-family: Arial; font-size: 11px; fill: rgb(42, 63, 95); fill-opacity: 1; white-space: pre;" transform="translate(0,155.25)">50</text></g><g class="ytick"><text text-anchor="end" x="69" y="3.8499999999999996" style="font-family: Arial; font-size: 11px; fill: rgb(42, 63, 95); fill-opacity: 1; white-space: pre;" transform="translate(0,82.13)">60</text></g></g><g class="overaxes-above"/></g></g><g class="polarlayer"/><g class="smithlayer"/><g class="ternarylayer"/><g class="geolayer"/><g class="funnelarealayer"/><g class="pielayer"/><g class="iciclelayer"/><g class="treemaplayer"/><g class="sunburstlayer"/><g class="glimages"/><defs id="topdefs-302981"><g class="clips"/><clipPath id="legend302981"><rect width="114" height="192" x="1" y="1"/></clipPath></defs><g class="layer-above"><g class="imagelayer"/><g class="shapelayer"/></g><g class="infolayer"><g class="legend" pointer-events="all" transform="translate(494.8,317.6)"><rect class="bg" shape-rendering="crispEdges" style="stroke: rgb(204, 204, 204); stroke-opacity: 1; fill: rgb(255, 255, 255); fill-opacity: 0.85; stroke-width: 1px;" width="115" height="193" x="0.5" y="0.5"/><g class="scrollbox" transform="" clip-path="url(#legend302981)"><text class="legendtitletext" text-anchor="start" x="3" y="24.400000000000002" style="font-family: Arial; font-size: 18px; fill: rgb(42, 63, 95); fill-opacity: 1; white-space: pre;"><tspan style="font-weight:bold">IUCN Status</tspan></text><g class="groups"><g class="traces" transform="translate(1,42.6)" style="opacity: 1;"><text class="legendtext" text-anchor="start" x="40" y="7.0200000000000005" style="font-family: Arial; font-size: 18px; fill: rgb(42, 63, 95); fill-opacity: 1; white-space: pre;">1 : 1 line</text><g class="layers" style="opacity: 1;"><g class="legendfill"/><g class="legendlines"><path class="js-line" d="M5,0h30" style="fill: none; stroke: rgb(136, 136, 136); stroke-opacity: 1; stroke-dasharray: 9px, 9px; stroke-width: 1.5px;"/></g><g class="legendsymbols"><g class="legendpoints"/></g></g><rect class="legendtoggle" x="0" y="-13.200000000000001" width="108.046875" height="26.400000000000002" style="fill: rgb(0, 0, 0); fill-opacity: 0;"/></g><g class="traces" transform="translate(1,69)" style="opacity: 1;"><text class="legendtext" text-anchor="start" x="40" y="7.0200000000000005" style="font-family: Arial; font-size: 18px; fill: rgb(42, 63, 95); fill-opacity: 1; white-space: pre;">LC</text><g class="layers" style="opacity: 1;"><g class="legendfill"/><g class="legendlines"/><g class="legendsymbols"><g class="legendpoints"><path class="scatterpts" transform="translate(20,0)" d="M-5.77,-2.5H5.77L0,5Z" style="opacity: 0.9; stroke-width: 0.8px; fill: rgb(96, 198, 89); fill-opacity: 1; stroke: rgb(0, 0, 0); stroke-opacity: 0.45;"/></g></g></g><rect class="legendtoggle" x="0" y="-13.200000000000001" width="108.046875" height="26.400000000000002" style="fill: rgb(0, 0, 0); fill-opacity: 0;"/></g><g class="traces" transform="translate(1,95.4)" style="opacity: 1;"><text class="legendtext" text-anchor="start" x="40" y="7.0200000000000005" style="font-family: Arial; font-size: 18px; fill: rgb(42, 63, 95); fill-opacity: 1; white-space: pre;">NT</text><g class="layers" style="opacity: 1;"><g class="legendfill"/><g class="legendlines"/><g class="legendsymbols"><g class="legendpoints"><path class="scatterpts" transform="translate(20,0)" d="M-5.77,2.5H5.77L0,-5Z" style="opacity: 0.9; stroke-width: 0.8px; fill: rgb(204, 226, 38); fill-opacity: 1; stroke: rgb(0, 0, 0); stroke-opacity: 0.45;"/></g></g></g><rect class="legendtoggle" x="0" y="-13.200000000000001" width="108.046875" height="26.400000000000002" style="fill: rgb(0, 0, 0); fill-opacity: 0;"/></g><g class="traces" transform="translate(1,121.80000000000001)" style="opacity: 1;"><text class="legendtext" text-anchor="start" x="40" y="7.0200000000000005" style="font-family: Arial; font-size: 18px; fill: rgb(42, 63, 95); fill-opacity: 1; white-space: pre;">VU</text><g class="layers" style="opacity: 1;"><g class="legendfill"/><g class="legendlines"/><g class="legendsymbols"><g class="legendpoints"><path class="scatterpts" transform="translate(20,0)" d="M6.5,0L0,6.5L-6.5,0L0,-6.5Z" style="opacity: 0.9; stroke-width: 0.8px; fill: rgb(249, 232, 20); fill-opacity: 1; stroke: rgb(0, 0, 0); stroke-opacity: 0.45;"/></g></g></g><rect class="legendtoggle" x="0" y="-13.200000000000001" width="108.046875" height="26.400000000000002" style="fill: rgb(0, 0, 0); fill-opacity: 0;"/></g><g class="traces" transform="translate(1,148.2)" style="opacity: 1;"><text class="legendtext" text-anchor="start" x="40" y="7.0200000000000005" style="font-family: Arial; font-size: 18px; fill: rgb(42, 63, 95); fill-opacity: 1; white-space: pre;">EN</text><g class="layers" style="opacity: 1;"><g class="legendfill"/><g class="legendlines"/><g class="legendsymbols"><g class="legendpoints"><path class="scatterpts" transform="translate(20,0)" d="M5,5H-5V-5H5Z" style="opacity: 0.9; stroke-width: 0.8px; fill: rgb(252, 127, 63); fill-opacity: 1; stroke: rgb(0, 0, 0); stroke-opacity: 0.45;"/></g></g></g><rect class="legendtoggle" x="0" y="-13.200000000000001" width="108.046875" height="26.400000000000002" style="fill: rgb(0, 0, 0); fill-opacity: 0;"/></g><g class="traces" transform="translate(1,174.6)" style="opacity: 1;"><text class="legendtext" text-anchor="start" x="40" y="7.0200000000000005" style="font-family: Arial; font-size: 18px; fill: rgb(42, 63, 95); fill-opacity: 1; white-space: pre;">CR</text><g class="layers" style="opacity: 1;"><g class="legendfill"/><g class="legendlines"/><g class="legendsymbols"><g class="legendpoints"><path class="scatterpts" transform="translate(20,0)" d="M5,0A5,5 0 1,1 0,-5A5,5 0 0,1 5,0Z" style="opacity: 0.9; stroke-width: 0.8px; fill: rgb(216, 30, 5); fill-opacity: 1; stroke: rgb(0, 0, 0); stroke-opacity: 0.45;"/></g></g></g><rect class="legendtoggle" x="0" y="-13.200000000000001" width="108.046875" height="26.400000000000002" style="fill: rgb(0, 0, 0); fill-opacity: 0;"/></g></g></g><rect class="scrollbar" rx="20" ry="3" width="0" height="0" style="fill: rgb(128, 139, 164); fill-opacity: 1;" x="0" y="0"/></g><g class="g-gtitle"><text class="gtitle" x="350" y="35" text-anchor="middle" dy="0em" style="opacity: 1; font-family: Arial; font-size: 18px; fill: rgb(34, 34, 34); fill-opacity: 1; white-space: pre;">Actual vs Predicted: Heterozygosity per kb outside of ROH</text></g><g class="g-xtitle"><text class="xtitle" x="365" y="591.1" text-anchor="middle" style="opacity: 1; font-family: Arial; font-size: 18px; fill: rgb(42, 63, 95); fill-opacity: 1; white-space: pre;">Actual Heterozygosity per kb outside of ROH</text></g><g class="g-ytitle"><text class="ytitle" transform="rotate(-90,35.95,310)" x="35.95" y="310" text-anchor="middle" style="opacity: 1; font-family: Arial; font-size: 18px; fill: rgb(42, 63, 95); fill-opacity: 1; white-space: pre;">Predicted heterozygosity per kb outside of ROH</text></g><g class="annotation" data-index="0" style="opacity: 1;"><g class="annotation-text-g" transform="rotate(0,152.5,110.00000000000003)"><g class="cursor-pointer" transform="translate(100,94)"><rect class="bg" x="0.5" y="0.5" width="105" height="31" style="stroke-width: 1px; stroke: rgb(204, 204, 204); stroke-opacity: 1; fill: rgb(255, 255, 255); fill-opacity: 1;"/><text class="annotation-text" text-anchor="middle" x="52.7890625" y="22" style="font-family: Arial; font-size: 18px; fill: rgb(42, 63, 95); fill-opacity: 1; white-space: pre;"><tspan style="font-weight:bold">R² = 0.5116</tspan></text></g></g></g></g></svg>