<svg class="main-svg" xmlns="http://www.w3.org/2000/svg" xmlns:xlink="http://www.w3.org/1999/xlink" width="700" height="620" style="" viewBox="0 0 700 620"><rect x="0" y="0" width="700" height="620" style="fill: rgb(255, 255, 255); fill-opacity: 1;"/><defs id="defs-e7171a"><g class="clips"><clipPath id="clipe7171axyplot" class="plotclip"><rect width="590" height="480"/></clipPath><clipPath class="axesclip" id="clipe7171ax"><rect x="70" y="0" width="590" height="620"/></clipPath><clipPath class="axesclip" id="clipe7171ay"><rect x="0" y="70" width="700" height="480"/></clipPath><clipPath class="axesclip" id="clipe7171axy"><rect x="70" y="70" width="590" height="480"/></clipPath></g><g class="gradients"/><g class="patterns"/></defs><g class="bglayer"/><g class="layer-below"><g class="imagelayer"/><g class="shapelayer"/></g><g class="cartesianlayer"><g class="subplot xy"><g class="layer-subplot"><g class="shapelayer"/><g class="imagelayer"/></g><g class="minor-gridlayer"><g class="x"/><g class="y"/></g><g class="gridlayer"><g class="x"><path class="xgrid crisp" transform="translate(195.91,0)" d="M0,70v480" style="stroke: rgb(238, 238, 238); stroke-opacity: 1; stroke-width: 1px;"/><path class="xgrid crisp" transform="translate(321.83000000000004,0)" d="M0,70v480" style="stroke: rgb(238, 238, 238); stroke-opacity: 1; stroke-width: 1px;"/><path class="xgrid crisp" transform="translate(447.74,0)" d="M0,70v480" style="stroke: rgb(238, 238, 238); stroke-opacity: 1; stroke-width: 1px;"/><path class="xgrid crisp" transform="translate(573.65,0)" d="M0,70v480" style="stroke: rgb(238, 238, 238); stroke-opacity: 1; stroke-width: 1px;"/></g><g class="y"><path class="ygrid crisp" transform="translate(0,498.2)" d="M70,0h590" style="stroke: rgb(238, 238, 238); stroke-opacity: 1; stroke-width: 1px;"/><path class="ygrid crisp" transform="translate(0,446.41)" d="M70,0h590" style="stroke: rgb(238, 238, 238); stroke-opacity: 1; stroke-width: 1px;"/><path class="ygrid crisp" transform="translate(0,394.61)" d="M70,0h590" style="stroke: rgb(238, 238, 238); stroke-opacity: 1; stroke-width: 1px;"/><path class="ygrid crisp" transform="translate(0,342.81)" d="M70,0h590" style="stroke: rgb(238, 238, 238); stroke-opacity: 1; stroke-width: 1px;"/><path class="ygrid crisp" transform="translate(0,291.02)" d="M70,0h590" style="stroke: rgb(238, 238, 238); stroke-opacity: 1; stroke-width: 1px;"/><path class="ygrid crisp" transform="translate(0,239.22)" d="M70,0h590" style="stroke: rgb(238, 238, 238); stroke-opacity: 1; stroke-width: 1px;"/><path class="ygrid crisp" transform="translate(0,187.43)" d="M70,0h590" style="stroke: rgb(238, 238, 238); stroke-opacity: 1; stroke-width: 1px;"/><path class="ygrid crisp" transform="translate(0,135.63)" d="M70,0h590" style="stroke: rgb(238, 238, 238); stroke-opacity: 1; stroke-width: 1px;"/><path class="ygrid crisp" transform="translate(0,83.83)" d="M70,0h590" style="stroke: rgb(238, 238, 238); stroke-opacity: 1; stroke-width: 1px;"/></g></g><g class="zerolinelayer"/><g class="layer-between"><g class="shapelayer"/><g class="imagelayer"/></g><path class="xlines-below"/><path class="ylines-below"/><g class="overlines-below"/><g class="xaxislayer-below"/><g class="yaxislayer-below"/><g class="overaxes-below"/><g class="overplot"><g class="xy" transform="translate(70,70)" clip-path="url(#clipe7171axyplot)"><g class="scatterlayer mlayer"><g class="trace scatter trace559acf" style="stroke-miterlimit: 2; opacity: 1;"><g class="fills"/><g class="errorbars"/><g class="lines"><path class="js-line" d="M0.87,479.29L554.25,24" style="vector-effect: none; fill: none; stroke: rgb(136, 136, 136); stroke-opacity: 1; stroke-dasharray: 9px, 9px; stroke-width: 1.5px; opacity: 1;"/></g><g class="points"/><g class="text"/></g><g class="trace scatter tracec6d164" style="stroke-miterlimit: 2; opacity: 1;"><g class="fills"/><g class="errorbars"/><g class="lines"/><g class="points"><path class="point" transform="translate(12.3,475.81)" d="M-5.77,-2.5H5.77L0,5Z" style="opacity: 0.9; stroke-width: 0.8px; fill: rgb(96, 198, 89); fill-opacity: 1; stroke: rgb(0, 0, 0); stroke-opacity: 0.45;"/><path class="point" transform="translate(159.12,404.11)" d="M-5.77,-2.5H5.77L0,5Z" style="opacity: 0.9; stroke-width: 0.8px; fill: rgb(96, 198, 89); fill-opacity: 1; stroke: rgb(0, 0, 0); stroke-opacity: 0.45;"/><path class="point" transform="translate(31.3,400.94)" d="M-5.77,-2.5H5.77L0,5Z" style="opacity: 0.9; stroke-width: 0.8px; fill: rgb(96, 198, 89); fill-opacity: 1; stroke: rgb(0, 0, 0); stroke-opacity: 0.45;"/><path class="point" transform="translate(82.5,366.97)" d="M-5.77,-2.5H5.77L0,5Z" style="opacity: 0.9; stroke-width: 0.8px; fill: rgb(96, 198, 89); fill-opacity: 1; stroke: rgb(0, 0, 0); stroke-opacity: 0.45;"/><path class="point" transform="translate(114.2,469.41)" d="M-5.77,-2.5H5.77L0,5Z" style="opacity: 0.9; stroke-width: 0.8px; fill: rgb(96, 198, 89); fill-opacity: 1; stroke: rgb(0, 0, 0); stroke-opacity: 0.45;"/><path class="point" transform="translate(58.91,454.52)" d="M-5.77,-2.5H5.77L0,5Z" style="opacity: 0.9; stroke-width: 0.8px; fill: rgb(96, 198, 89); fill-opacity: 1; stroke: rgb(0, 0, 0); stroke-opacity: 0.45;"/><path class="point" transform="translate(64.3,470.41)" d="M-5.77,-2.5H5.77L0,5Z" style="opacity: 0.9; stroke-width: 0.8px; fill: rgb(96, 198, 89); fill-opacity: 1; stroke: rgb(0, 0, 0); stroke-opacity: 0.45;"/><path class="point" transform="translate(141.43,427.39)" d="M-5.77,-2.5H5.77L0,5Z" style="opacity: 0.9; stroke-width: 0.8px; fill: rgb(96, 198, 89); fill-opacity: 1; stroke: rgb(0, 0, 0); stroke-opacity: 0.45;"/><path class="point" transform="translate(147.11,466.78)" d="M-5.77,-2.5H5.77L0,5Z" style="opacity: 0.9; stroke-width: 0.8px; fill: rgb(96, 198, 89); fill-opacity: 1; stroke: rgb(0, 0, 0); stroke-opacity: 0.45;"/><path class="point" transform="translate(19.32,466.87)" d="M-5.77,-2.5H5.77L0,5Z" style="opacity: 0.9; stroke-width: 0.8px; fill: rgb(96, 198, 89); fill-opacity: 1; stroke: rgb(0, 0, 0); stroke-opacity: 0.45;"/><path class="point" transform="translate(184.81,471.83)" d="M-5.77,-2.5H5.77L0,5Z" style="opacity: 0.9; stroke-width: 0.8px; fill: rgb(96, 198, 89); fill-opacity: 1; stroke: rgb(0, 0, 0); stroke-opacity: 0.45;"/><path class="point" transform="translate(80.11,466.46)" d="M-5.77,-2.5H5.77L0,5Z" style="opacity: 0.9; stroke-width: 0.8px; fill: rgb(96, 198, 89); fill-opacity: 1; stroke: rgb(0, 0, 0); stroke-opacity: 0.45;"/><path class="point" transform="translate(85.69,450.31)" d="M-5.77,-2.5H5.77L0,5Z" style="opacity: 0.9; stroke-width: 0.8px; fill: rgb(96, 198, 89); fill-opacity: 1; stroke: rgb(0, 0, 0); stroke-opacity: 0.45;"/><path class="point" transform="translate(7.02,468.48)" d="M-5.77,-2.5H5.77L0,5Z" style="opacity: 0.9; stroke-width: 0.8px; fill: rgb(96, 198, 89); fill-opacity: 1; stroke: rgb(0, 0, 0); stroke-opacity: 0.45;"/><path class="point" transform="translate(11.14,421.94)" d="M-5.77,-2.5H5.77L0,5Z" style="opacity: 0.9; stroke-width: 0.8px; fill: rgb(96, 198, 89); fill-opacity: 1; stroke: rgb(0, 0, 0); stroke-opacity: 0.45;"/><path class="point" transform="translate(7.53,476.15)" d="M-5.77,-2.5H5.77L0,5Z" style="opacity: 0.9; stroke-width: 0.8px; fill: rgb(96, 198, 89); fill-opacity: 1; stroke: rgb(0, 0, 0); stroke-opacity: 0.45;"/><path class="point" transform="translate(26.65,376.46)" d="M-5.77,-2.5H5.77L0,5Z" style="opacity: 0.9; stroke-width: 0.8px; fill: rgb(96, 198, 89); fill-opacity: 1; stroke: rgb(0, 0, 0); stroke-opacity: 0.45;"/><path class="point" transform="translate(351.05,468.79)" d="M-5.77,-2.5H5.77L0,5Z" style="opacity: 0.9; stroke-width: 0.8px; fill: rgb(96, 198, 89); fill-opacity: 1; stroke: rgb(0, 0, 0); stroke-opacity: 0.45;"/><path class="point" transform="translate(158.02,450.74)" d="M-5.77,-2.5H5.77L0,5Z" style="opacity: 0.9; stroke-width: 0.8px; fill: rgb(96, 198, 89); fill-opacity: 1; stroke: rgb(0, 0, 0); stroke-opacity: 0.45;"/><path class="point" transform="translate(14.46,460.37)" d="M-5.77,-2.5H5.77L0,5Z" style="opacity: 0.9; stroke-width: 0.8px; fill: rgb(96, 198, 89); fill-opacity: 1; stroke: rgb(0, 0, 0); stroke-opacity: 0.45;"/><path class="point" transform="translate(375.17,471.01)" d="M-5.77,-2.5H5.77L0,5Z" style="opacity: 0.9; stroke-width: 0.8px; fill: rgb(96, 198, 89); fill-opacity: 1; stroke: rgb(0, 0, 0); stroke-opacity: 0.45;"/><path class="point" transform="translate(88,471.91)" d="M-5.77,-2.5H5.77L0,5Z" style="opacity: 0.9; stroke-width: 0.8px; fill: rgb(96, 198, 89); fill-opacity: 1; stroke: rgb(0, 0, 0); stroke-opacity: 0.45;"/><path class="point" transform="translate(136.43,434.95)" d="M-5.77,-2.5H5.77L0,5Z" style="opacity: 0.9; stroke-width: 0.8px; fill: rgb(96, 198, 89); fill-opacity: 1; stroke: rgb(0, 0, 0); stroke-opacity: 0.45;"/><path class="point" transform="translate(152.42,467.73)" d="M-5.77,-2.5H5.77L0,5Z" style="opacity: 0.9; stroke-width: 0.8px; fill: rgb(96, 198, 89); fill-opacity: 1; stroke: rgb(0, 0, 0); stroke-opacity: 0.45;"/><path class="point" transform="translate(158.6,445.98)" d="M-5.77,-2.5H5.77L0,5Z" style="opacity: 0.9; stroke-width: 0.8px; fill: rgb(96, 198, 89); fill-opacity: 1; stroke: rgb(0, 0, 0); stroke-opacity: 0.45;"/><path class="point" transform="translate(123.71,465.4)" d="M-5.77,-2.5H5.77L0,5Z" style="opacity: 0.9; stroke-width: 0.8px; fill: rgb(96, 198, 89); fill-opacity: 1; stroke: rgb(0, 0, 0); stroke-opacity: 0.45;"/><path class="point" transform="translate(86.27,468.75)" d="M-5.77,-2.5H5.77L0,5Z" style="opacity: 0.9; stroke-width: 0.8px; fill: rgb(96, 198, 89); fill-opacity: 1; stroke: rgb(0, 0, 0); stroke-opacity: 0.45;"/><path class="point" transform="translate(39.39,432.51)" d="M-5.77,-2.5H5.77L0,5Z" style="opacity: 0.9; stroke-width: 0.8px; fill: rgb(96, 198, 89); fill-opacity: 1; stroke: rgb(0, 0, 0); stroke-opacity: 0.45;"/><path class="point" transform="translate(8.28,426.38)" d="M-5.77,-2.5H5.77L0,5Z" style="opacity: 0.9; stroke-width: 0.8px; fill: rgb(96, 198, 89); fill-opacity: 1; stroke: rgb(0, 0, 0); stroke-opacity: 0.45;"/><path class="point" transform="translate(245.91,395.93)" d="M-5.77,-2.5H5.77L0,5Z" style="opacity: 0.9; stroke-width: 0.8px; fill: rgb(96, 198, 89); fill-opacity: 1; stroke: rgb(0, 0, 0); stroke-opacity: 0.45;"/><path class="point" transform="translate(13.92,468.37)" d="M-5.77,-2.5H5.77L0,5Z" style="opacity: 0.9; stroke-width: 0.8px; fill: rgb(96, 198, 89); fill-opacity: 1; stroke: rgb(0, 0, 0); stroke-opacity: 0.45;"/><path class="point" transform="translate(9.35,478.69)" d="M-5.77,-2.5H5.77L0,5Z" style="opacity: 0.9; stroke-width: 0.8px; fill: rgb(96, 198, 89); fill-opacity: 1; stroke: rgb(0, 0, 0); stroke-opacity: 0.45;"/><path class="point" transform="translate(6.38,478.83)" d="M-5.77,-2.5H5.77L0,5Z" style="opacity: 0.9; stroke-width: 0.8px; fill: rgb(96, 198, 89); fill-opacity: 1; stroke: rgb(0, 0, 0); stroke-opacity: 0.45;"/><path class="point" transform="translate(12.78,473.06)" d="M-5.77,-2.5H5.77L0,5Z" style="opacity: 0.9; stroke-width: 0.8px; fill: rgb(96, 198, 89); fill-opacity: 1; stroke: rgb(0, 0, 0); stroke-opacity: 0.45;"/><path class="point" transform="translate(44.67,392.28)" d="M-5.77,-2.5H5.77L0,5Z" style="opacity: 0.9; stroke-width: 0.8px; fill: rgb(96, 198, 89); fill-opacity: 1; stroke: rgb(0, 0, 0); stroke-opacity: 0.45;"/><path class="point" transform="translate(54.06,471.79)" d="M-5.77,-2.5H5.77L0,5Z" style="opacity: 0.9; stroke-width: 0.8px; fill: rgb(96, 198, 89); fill-opacity: 1; stroke: rgb(0, 0, 0); stroke-opacity: 0.45;"/><path class="point" transform="translate(245.89,446.92)" d="M-5.77,-2.5H5.77L0,5Z" style="opacity: 0.9; stroke-width: 0.8px; fill: rgb(96, 198, 89); fill-opacity: 1; stroke: rgb(0, 0, 0); stroke-opacity: 0.45;"/><path class="point" transform="translate(10.64,441.55)" d="M-5.77,-2.5H5.77L0,5Z" style="opacity: 0.9; stroke-width: 0.8px; fill: rgb(96, 198, 89); fill-opacity: 1; stroke: rgb(0, 0, 0); stroke-opacity: 0.45;"/><path class="point" transform="translate(315.76,384.62)" d="M-5.77,-2.5H5.77L0,5Z" style="opacity: 0.9; stroke-width: 0.8px; fill: rgb(96, 198, 89); fill-opacity: 1; stroke: rgb(0, 0, 0); stroke-opacity: 0.45;"/><path class="point" transform="translate(47.81,460.87)" d="M-5.77,-2.5H5.77L0,5Z" style="opacity: 0.9; stroke-width: 0.8px; fill: rgb(96, 198, 89); fill-opacity: 1; stroke: rgb(0, 0, 0); stroke-opacity: 0.45;"/><path class="point" transform="translate(7.7,465.85)" d="M-5.77,-2.5H5.77L0,5Z" style="opacity: 0.9; stroke-width: 0.8px; fill: rgb(96, 198, 89); fill-opacity: 1; stroke: rgb(0, 0, 0); stroke-opacity: 0.45;"/><path class="point" transform="translate(6.87,477.71)" d="M-5.77,-2.5H5.77L0,5Z" style="opacity: 0.9; stroke-width: 0.8px; fill: rgb(96, 198, 89); fill-opacity: 1; stroke: rgb(0, 0, 0); stroke-opacity: 0.45;"/><path class="point" transform="translate(36.01,447.58)" d="M-5.77,-2.5H5.77L0,5Z" style="opacity: 0.9; stroke-width: 0.8px; fill: rgb(96, 198, 89); fill-opacity: 1; stroke: rgb(0, 0, 0); stroke-opacity: 0.45;"/><path class="point" transform="translate(127.03,474.02)" d="M-5.77,-2.5H5.77L0,5Z" style="opacity: 0.9; stroke-width: 0.8px; fill: rgb(96, 198, 89); fill-opacity: 1; stroke: rgb(0, 0, 0); stroke-opacity: 0.45;"/><path class="point" transform="translate(58.9,461.83)" d="M-5.77,-2.5H5.77L0,5Z" style="opacity: 0.9; stroke-width: 0.8px; fill: rgb(96, 198, 89); fill-opacity: 1; stroke: rgb(0, 0, 0); stroke-opacity: 0.45;"/><path class="point" transform="translate(59.8,468.15)" d="M-5.77,-2.5H5.77L0,5Z" style="opacity: 0.9; stroke-width: 0.8px; fill: rgb(96, 198, 89); fill-opacity: 1; stroke: rgb(0, 0, 0); stroke-opacity: 0.45;"/><path class="point" transform="translate(385.56,476.06)" d="M-5.77,-2.5H5.77L0,5Z" style="opacity: 0.9; stroke-width: 0.8px; fill: rgb(96, 198, 89); fill-opacity: 1; stroke: rgb(0, 0, 0); stroke-opacity: 0.45;"/><path class="point" transform="translate(399.62,472.72)" d="M-5.77,-2.5H5.77L0,5Z" style="opacity: 0.9; stroke-width: 0.8px; fill: rgb(96, 198, 89); fill-opacity: 1; stroke: rgb(0, 0, 0); stroke-opacity: 0.45;"/><path class="point" transform="translate(6.97,472.12)" d="M-5.77,-2.5H5.77L0,5Z" style="opacity: 0.9; stroke-width: 0.8px; fill: rgb(96, 198, 89); fill-opacity: 1; stroke: rgb(0, 0, 0); stroke-opacity: 0.45;"/><path class="point" transform="translate(20.52,449.41)" d="M-5.77,-2.5H5.77L0,5Z" style="opacity: 0.9; stroke-width: 0.8px; fill: rgb(96, 198, 89); fill-opacity: 1; stroke: rgb(0, 0, 0); stroke-opacity: 0.45;"/><path class="point" transform="translate(336.86,228.8)" d="M-5.77,-2.5H5.77L0,5Z" style="opacity: 0.9; stroke-width: 0.8px; fill: rgb(96, 198, 89); fill-opacity: 1; stroke: rgb(0, 0, 0); stroke-opacity: 0.45;"/><path class="point" transform="translate(46,450.89)" d="M-5.77,-2.5H5.77L0,5Z" style="opacity: 0.9; stroke-width: 0.8px; fill: rgb(96, 198, 89); fill-opacity: 1; stroke: rgb(0, 0, 0); stroke-opacity: 0.45;"/><path class="point" transform="translate(57.05,446.86)" d="M-5.77,-2.5H5.77L0,5Z" style="opacity: 0.9; stroke-width: 0.8px; fill: rgb(96, 198, 89); fill-opacity: 1; stroke: rgb(0, 0, 0); stroke-opacity: 0.45;"/><path class="point" transform="translate(20.48,445.3)" d="M-5.77,-2.5H5.77L0,5Z" style="opacity: 0.9; stroke-width: 0.8px; fill: rgb(96, 198, 89); fill-opacity: 1; stroke: rgb(0, 0, 0); stroke-opacity: 0.45;"/><path class="point" transform="translate(12.23,465.18)" d="M-5.77,-2.5H5.77L0,5Z" style="opacity: 0.9; stroke-width: 0.8px; fill: rgb(96, 198, 89); fill-opacity: 1; stroke: rgb(0, 0, 0); stroke-opacity: 0.45;"/><path class="point" transform="translate(8.11,473.74)" d="M-5.77,-2.5H5.77L0,5Z" style="opacity: 0.9; stroke-width: 0.8px; fill: rgb(96, 198, 89); fill-opacity: 1; stroke: rgb(0, 0, 0); stroke-opacity: 0.45;"/><path class="point" transform="translate(12.92,452.03)" d="M-5.77,-2.5H5.77L0,5Z" style="opacity: 0.9; stroke-width: 0.8px; fill: rgb(96, 198, 89); fill-opacity: 1; stroke: rgb(0, 0, 0); stroke-opacity: 0.45;"/><path class="point" transform="translate(23.13,453.37)" d="M-5.77,-2.5H5.77L0,5Z" style="opacity: 0.9; stroke-width: 0.8px; fill: rgb(96, 198, 89); fill-opacity: 1; stroke: rgb(0, 0, 0); stroke-opacity: 0.45;"/><path class="point" transform="translate(23.8,448.46)" d="M-5.77,-2.5H5.77L0,5Z" style="opacity: 0.9; stroke-width: 0.8px; fill: rgb(96, 198, 89); fill-opacity: 1; stroke: rgb(0, 0, 0); stroke-opacity: 0.45;"/><path class="point" transform="translate(273.95,285.34)" d="M-5.77,-2.5H5.77L0,5Z" style="opacity: 0.9; stroke-width: 0.8px; fill: rgb(96, 198, 89); fill-opacity: 1; stroke: rgb(0, 0, 0); stroke-opacity: 0.45;"/><path class="point" transform="translate(185.09,398.15)" d="M-5.77,-2.5H5.77L0,5Z" style="opacity: 0.9; stroke-width: 0.8px; fill: rgb(96, 198, 89); fill-opacity: 1; stroke: rgb(0, 0, 0); stroke-opacity: 0.45;"/><path class="point" transform="translate(15.17,428.54)" d="M-5.77,-2.5H5.77L0,5Z" style="opacity: 0.9; stroke-width: 0.8px; fill: rgb(96, 198, 89); fill-opacity: 1; stroke: rgb(0, 0, 0); stroke-opacity: 0.45;"/><path class="point" transform="translate(260.49,327.83)" d="M-5.77,-2.5H5.77L0,5Z" style="opacity: 0.9; stroke-width: 0.8px; fill: rgb(96, 198, 89); fill-opacity: 1; stroke: rgb(0, 0, 0); stroke-opacity: 0.45;"/><path class="point" transform="translate(17.37,469.01)" d="M-5.77,-2.5H5.77L0,5Z" style="opacity: 0.9; stroke-width: 0.8px; fill: rgb(96, 198, 89); fill-opacity: 1; stroke: rgb(0, 0, 0); stroke-opacity: 0.45;"/><path class="point" transform="translate(8.56,387.29)" d="M-5.77,-2.5H5.77L0,5Z" style="opacity: 0.9; stroke-width: 0.8px; fill: rgb(96, 198, 89); fill-opacity: 1; stroke: rgb(0, 0, 0); stroke-opacity: 0.45;"/><path class="point" transform="translate(227.1,453.34)" d="M-5.77,-2.5H5.77L0,5Z" style="opacity: 0.9; stroke-width: 0.8px; fill: rgb(96, 198, 89); fill-opacity: 1; stroke: rgb(0, 0, 0); stroke-opacity: 0.45;"/><path class="point" transform="translate(33.97,464.46)" d="M-5.77,-2.5H5.77L0,5Z" style="opacity: 0.9; stroke-width: 0.8px; fill: rgb(96, 198, 89); fill-opacity: 1; stroke: rgb(0, 0, 0); stroke-opacity: 0.45;"/><path class="point" transform="translate(44.56,464.17)" d="M-5.77,-2.5H5.77L0,5Z" style="opacity: 0.9; stroke-width: 0.8px; fill: rgb(96, 198, 89); fill-opacity: 1; stroke: rgb(0, 0, 0); stroke-opacity: 0.45;"/><path class="point" transform="translate(8.37,457.83)" d="M-5.77,-2.5H5.77L0,5Z" style="opacity: 0.9; stroke-width: 0.8px; fill: rgb(96, 198, 89); fill-opacity: 1; stroke: rgb(0, 0, 0); stroke-opacity: 0.45;"/><path class="point" transform="translate(135.42,199.1)" d="M-5.77,-2.5H5.77L0,5Z" style="opacity: 0.9; stroke-width: 0.8px; fill: rgb(96, 198, 89); fill-opacity: 1; stroke: rgb(0, 0, 0); stroke-opacity: 0.45;"/><path class="point" transform="translate(33.67,457.94)" d="M-5.77,-2.5H5.77L0,5Z" style="opacity: 0.9; stroke-width: 0.8px; fill: rgb(96, 198, 89); fill-opacity: 1; stroke: rgb(0, 0, 0); stroke-opacity: 0.45;"/><path class="point" transform="translate(86.65,468.58)" d="M-5.77,-2.5H5.77L0,5Z" style="opacity: 0.9; stroke-width: 0.8px; fill: rgb(96, 198, 89); fill-opacity: 1; stroke: rgb(0, 0, 0); stroke-opacity: 0.45;"/><path class="point" transform="translate(19.3,469.56)" d="M-5.77,-2.5H5.77L0,5Z" style="opacity: 0.9; stroke-width: 0.8px; fill: rgb(96, 198, 89); fill-opacity: 1; stroke: rgb(0, 0, 0); stroke-opacity: 0.45;"/><path class="point" transform="translate(67.75,467.58)" d="M-5.77,-2.5H5.77L0,5Z" style="opacity: 0.9; stroke-width: 0.8px; fill: rgb(96, 198, 89); fill-opacity: 1; stroke: rgb(0, 0, 0); stroke-opacity: 0.45;"/><path class="point" transform="translate(60.25,454.48)" d="M-5.77,-2.5H5.77L0,5Z" style="opacity: 0.9; stroke-width: 0.8px; fill: rgb(96, 198, 89); fill-opacity: 1; stroke: rgb(0, 0, 0); stroke-opacity: 0.45;"/></g><g class="text"/></g><g class="trace scatter tracef6a84d" style="stroke-miterlimit: 2; opacity: 1;"><g class="fills"/><g class="errorbars"/><g class="lines"/><g class="points"><path class="point" transform="translate(21.3,403.28)" d="M-5.77,2.5H5.77L0,-5Z" style="opacity: 0.9; stroke-width: 0.8px; fill: rgb(204, 226, 38); fill-opacity: 1; stroke: rgb(0, 0, 0); stroke-opacity: 0.45;"/><path class="point" transform="translate(55.79,477.59)" d="M-5.77,2.5H5.77L0,-5Z" style="opacity: 0.9; stroke-width: 0.8px; fill: rgb(204, 226, 38); fill-opacity: 1; stroke: rgb(0, 0, 0); stroke-opacity: 0.45;"/><path class="point" transform="translate(23.76,470.9)" d="M-5.77,2.5H5.77L0,-5Z" style="opacity: 0.9; stroke-width: 0.8px; fill: rgb(204, 226, 38); fill-opacity: 1; stroke: rgb(0, 0, 0); stroke-opacity: 0.45;"/><path class="point" transform="translate(15.25,436.71)" d="M-5.77,2.5H5.77L0,-5Z" style="opacity: 0.9; stroke-width: 0.8px; fill: rgb(204, 226, 38); fill-opacity: 1; stroke: rgb(0, 0, 0); stroke-opacity: 0.45;"/><path class="point" transform="translate(19.98,477.93)" d="M-5.77,2.5H5.77L0,-5Z" style="opacity: 0.9; stroke-width: 0.8px; fill: rgb(204, 226, 38); fill-opacity: 1; stroke: rgb(0, 0, 0); stroke-opacity: 0.45;"/><path class="point" transform="translate(42.29,417.15)" d="M-5.77,2.5H5.77L0,-5Z" style="opacity: 0.9; stroke-width: 0.8px; fill: rgb(204, 226, 38); fill-opacity: 1; stroke: rgb(0, 0, 0); stroke-opacity: 0.45;"/><path class="point" transform="translate(16.5,474.06)" d="M-5.77,2.5H5.77L0,-5Z" style="opacity: 0.9; stroke-width: 0.8px; fill: rgb(204, 226, 38); fill-opacity: 1; stroke: rgb(0, 0, 0); stroke-opacity: 0.45;"/><path class="point" transform="translate(8.57,471.39)" d="M-5.77,2.5H5.77L0,-5Z" style="opacity: 0.9; stroke-width: 0.8px; fill: rgb(204, 226, 38); fill-opacity: 1; stroke: rgb(0, 0, 0); stroke-opacity: 0.45;"/><path class="point" transform="translate(8.79,456.5)" d="M-5.77,2.5H5.77L0,-5Z" style="opacity: 0.9; stroke-width: 0.8px; fill: rgb(204, 226, 38); fill-opacity: 1; stroke: rgb(0, 0, 0); stroke-opacity: 0.45;"/></g><g class="text"/></g><g class="trace scatter trace6b5a95" style="stroke-miterlimit: 2; opacity: 1;"><g class="fills"/><g class="errorbars"/><g class="lines"/><g class="points"><path class="point" transform="translate(10.35,472.58)" d="M6.5,0L0,6.5L-6.5,0L0,-6.5Z" style="opacity: 0.9; stroke-width: 0.8px; fill: rgb(249, 232, 20); fill-opacity: 1; stroke: rgb(0, 0, 0); stroke-opacity: 0.45;"/><path class="point" transform="translate(22.48,447.67)" d="M6.5,0L0,6.5L-6.5,0L0,-6.5Z" style="opacity: 0.9; stroke-width: 0.8px; fill: rgb(249, 232, 20); fill-opacity: 1; stroke: rgb(0, 0, 0); stroke-opacity: 0.45;"/><path class="point" transform="translate(50.08,478.49)" d="M6.5,0L0,6.5L-6.5,0L0,-6.5Z" style="opacity: 0.9; stroke-width: 0.8px; fill: rgb(249, 232, 20); fill-opacity: 1; stroke: rgb(0, 0, 0); stroke-opacity: 0.45;"/><path class="point" transform="translate(116.88,447.19)" d="M6.5,0L0,6.5L-6.5,0L0,-6.5Z" style="opacity: 0.9; stroke-width: 0.8px; fill: rgb(249, 232, 20); fill-opacity: 1; stroke: rgb(0, 0, 0); stroke-opacity: 0.45;"/><path class="point" transform="translate(12.75,478.53)" d="M6.5,0L0,6.5L-6.5,0L0,-6.5Z" style="opacity: 0.9; stroke-width: 0.8px; fill: rgb(249, 232, 20); fill-opacity: 1; stroke: rgb(0, 0, 0); stroke-opacity: 0.45;"/><path class="point" transform="translate(554.25,428.74)" d="M6.5,0L0,6.5L-6.5,0L0,-6.5Z" style="opacity: 0.9; stroke-width: 0.8px; fill: rgb(249, 232, 20); fill-opacity: 1; stroke: rgb(0, 0, 0); stroke-opacity: 0.45;"/><path class="point" transform="translate(17.23,475)" d="M6.5,0L0,6.5L-6.5,0L0,-6.5Z" style="opacity: 0.9; stroke-width: 0.8px; fill: rgb(249, 232, 20); fill-opacity: 1; stroke: rgb(0, 0, 0); stroke-opacity: 0.45;"/><path class="point" transform="translate(69.19,449.12)" d="M6.5,0L0,6.5L-6.5,0L0,-6.5Z" style="opacity: 0.9; stroke-width: 0.8px; fill: rgb(249, 232, 20); fill-opacity: 1; stroke: rgb(0, 0, 0); stroke-opacity: 0.45;"/><path class="point" transform="translate(61.8,458.89)" d="M6.5,0L0,6.5L-6.5,0L0,-6.5Z" style="opacity: 0.9; stroke-width: 0.8px; fill: rgb(249, 232, 20); fill-opacity: 1; stroke: rgb(0, 0, 0); stroke-opacity: 0.45;"/><path class="point" transform="translate(473.26,428.38)" d="M6.5,0L0,6.5L-6.5,0L0,-6.5Z" style="opacity: 0.9; stroke-width: 0.8px; fill: rgb(249, 232, 20); fill-opacity: 1; stroke: rgb(0, 0, 0); stroke-opacity: 0.45;"/></g><g class="text"/></g><g class="trace scatter traceb15d57" style="stroke-miterlimit: 2; opacity: 1;"><g class="fills"/><g class="errorbars"/><g class="lines"/><g class="points"><path class="point" transform="translate(24.15,474.41)" d="M5,5H-5V-5H5Z" style="opacity: 0.9; stroke-width: 0.8px; fill: rgb(252, 127, 63); fill-opacity: 1; stroke: rgb(0, 0, 0); stroke-opacity: 0.45;"/><path class="point" transform="translate(79.46,477.54)" d="M5,5H-5V-5H5Z" style="opacity: 0.9; stroke-width: 0.8px; fill: rgb(252, 127, 63); fill-opacity: 1; stroke: rgb(0, 0, 0); stroke-opacity: 0.45;"/><path class="point" transform="translate(115.58,437)" d="M5,5H-5V-5H5Z" style="opacity: 0.9; stroke-width: 0.8px; fill: rgb(252, 127, 63); fill-opacity: 1; stroke: rgb(0, 0, 0); stroke-opacity: 0.45;"/><path class="point" transform="translate(41.79,479.29)" d="M5,5H-5V-5H5Z" style="opacity: 0.9; stroke-width: 0.8px; fill: rgb(252, 127, 63); fill-opacity: 1; stroke: rgb(0, 0, 0); stroke-opacity: 0.45;"/><path class="point" transform="translate(30.76,479.24)" d="M5,5H-5V-5H5Z" style="opacity: 0.9; stroke-width: 0.8px; fill: rgb(252, 127, 63); fill-opacity: 1; stroke: rgb(0, 0, 0); stroke-opacity: 0.45;"/><path class="point" transform="translate(69.14,452.67)" d="M5,5H-5V-5H5Z" style="opacity: 0.9; stroke-width: 0.8px; fill: rgb(252, 127, 63); fill-opacity: 1; stroke: rgb(0, 0, 0); stroke-opacity: 0.45;"/><path class="point" transform="translate(25.96,474.68)" d="M5,5H-5V-5H5Z" style="opacity: 0.9; stroke-width: 0.8px; fill: rgb(252, 127, 63); fill-opacity: 1; stroke: rgb(0, 0, 0); stroke-opacity: 0.45;"/><path class="point" transform="translate(22.68,470.85)" d="M5,5H-5V-5H5Z" style="opacity: 0.9; stroke-width: 0.8px; fill: rgb(252, 127, 63); fill-opacity: 1; stroke: rgb(0, 0, 0); stroke-opacity: 0.45;"/><path class="point" transform="translate(53.96,474.55)" d="M5,5H-5V-5H5Z" style="opacity: 0.9; stroke-width: 0.8px; fill: rgb(252, 127, 63); fill-opacity: 1; stroke: rgb(0, 0, 0); stroke-opacity: 0.45;"/></g><g class="text"/></g><g class="trace scatter trace1d1281" style="stroke-miterlimit: 2; opacity: 1;"><g class="fills"/><g class="errorbars"/><g class="lines"/><g class="points"><path class="point" transform="translate(108.34,459.28)" d="M5,0A5,5 0 1,1 0,-5A5,5 0 0,1 5,0Z" style="opacity: 0.9; stroke-width: 0.8px; fill: rgb(216, 30, 5); fill-opacity: 1; stroke: rgb(0, 0, 0); stroke-opacity: 0.45;"/><path class="point" transform="translate(45.22,475.6)" d="M5,0A5,5 0 1,1 0,-5A5,5 0 0,1 5,0Z" style="opacity: 0.9; stroke-width: 0.8px; fill: rgb(216, 30, 5); fill-opacity: 1; stroke: rgb(0, 0, 0); stroke-opacity: 0.45;"/><path class="point" transform="translate(149.36,443.94)" d="M5,0A5,5 0 1,1 0,-5A5,5 0 0,1 5,0Z" style="opacity: 0.9; stroke-width: 0.8px; fill: rgb(216, 30, 5); fill-opacity: 1; stroke: rgb(0, 0, 0); stroke-opacity: 0.45;"/><path class="point" transform="translate(63.82,471.14)" d="M5,0A5,5 0 1,1 0,-5A5,5 0 0,1 5,0Z" style="opacity: 0.9; stroke-width: 0.8px; fill: rgb(216, 30, 5); fill-opacity: 1; stroke: rgb(0, 0, 0); stroke-opacity: 0.45;"/><path class="point" transform="translate(25.84,471.81)" d="M5,0A5,5 0 1,1 0,-5A5,5 0 0,1 5,0Z" style="opacity: 0.9; stroke-width: 0.8px; fill: rgb(216, 30, 5); fill-opacity: 1; stroke: rgb(0, 0, 0); stroke-opacity: 0.45;"/></g><g class="text"/></g></g></g></g><g class="zerolinelayer-above"/><path class="xlines-above crisp" d="M0,0" style="fill: none;"/><path class="ylines-above crisp" d="M0,0" style="fill: none;"/><g class="overlines-above"/><g class="xaxislayer-above"><g class="xtick"><text text-anchor="middle" x="0" y="562" transform="translate(70,0)" style="font-family: Arial; font-size: 11px; fill: rgb(42, 63, 95); fill-opacity: 1; white-space: pre;">0</text></g><g class="xtick"><text text-anchor="middle" x="0" y="562" style="font-family: Arial; font-size: 11px; fill: rgb(42, 63, 95); fill-opacity: 1; white-space: pre;" transform="translate(195.91,0)">20</text></g><g class="xtick"><text text-anchor="middle" x="0" y="562" style="font-family: Arial; font-size: 11px; fill: rgb(42, 63, 95); fill-opacity: 1; white-space: pre;" transform="translate(321.83000000000004,0)">40</text></g><g class="xtick"><text text-anchor="middle" x="0" y="562" style="font-family: Arial; font-size: 11px; fill: rgb(42, 63, 95); fill-opacity: 1; white-space: pre;" transform="translate(447.74,0)">60</text></g><g class="xtick"><text text-anchor="middle" x="0" y="562" style="font-family: Arial; font-size: 11px; fill: rgb(42, 63, 95); fill-opacity: 1; white-space: pre;" transform="translate(573.65,0)">80</text></g></g><g class="yaxislayer-above"><g class="ytick"><text text-anchor="end" x="69" y="3.8499999999999996" transform="translate(0,550)" style="font-family: Arial; font-size: 11px; fill: rgb(42, 63, 95); fill-opacity: 1; white-space: pre;">0</text></g><g class="ytick"><text text-anchor="end" x="69" y="3.8499999999999996" style="font-family: Arial; font-size: 11px; fill: rgb(42, 63, 95); fill-opacity: 1; white-space: pre;" transform="translate(0,498.2)">10</text></g><g class="ytick"><text text-anchor="end" x="69" y="3.8499999999999996" style="font-family: Arial; font-size: 11px; fill: rgb(42, 63, 95); fill-opacity: 1; white-space: pre;" transform="translate(0,446.41)">20</text></g><g class="ytick"><text text-anchor="end" x="69" y="3.8499999999999996" style="font-family: Arial; font-size: 11px; fill: rgb(42, 63, 95); fill-opacity: 1; white-space: pre;" transform="translate(0,394.61)">30</text></g><g class="ytick"><text text-anchor="end" x="69" y="3.8499999999999996" style="font-family: Arial; font-size: 11px; fill: rgb(42, 63, 95); fill-opacity: 1; white-space: pre;" transform="translate(0,342.81)">40</text></g><g class="ytick"><text text-anchor="end" x="69" y="3.8499999999999996" style="font-family: Arial; font-size: 11px; fill: rgb(42, 63, 95); fill-opacity: 1; white-space: pre;" transform="translate(0,291.02)">50</text></g><g class="ytick"><text text-anchor="end" x="69" y="3.8499999999999996" style="font-family: Arial; font-size: 11px; fill: rgb(42, 63, 95); fill-opacity: 1; white-space: pre;" transform="translate(0,239.22)">60</text></g><g class="ytick"><text text-anchor="end" x="69" y="3.8499999999999996" style="font-family: Arial; font-size: 11px; fill: rgb(42, 63, 95); fill-opacity: 1; white-space: pre;" transform="translate(0,187.43)">70</text></g><g class="ytick"><text text-anchor="end" x="69" y="3.8499999999999996" style="font-family: Arial; font-size: 11px; fill: rgb(42, 63, 95); fill-opacity: 1; white-space: pre;" transform="translate(0,135.63)">80</text></g><g class="ytick"><text text-anchor="end" x="69" y="3.8499999999999996" style="font-family: Arial; font-size: 11px; fill: rgb(42, 63, 95); fill-opacity: 1; white-space: pre;" transform="translate(0,83.83)">90</text></g></g><g class="overaxes-above"/></g></g><g class="polarlayer"/><g class="smithlayer"/><g class="ternarylayer"/><g class="geolayer"/><g class="funnelarealayer"/><g class="pielayer"/><g class="iciclelayer"/><g class="treemaplayer"/><g class="sunburstlayer"/><g class="glimages"/><defs id="topdefs-e7171a"><g class="clips"/><clipPath id="legende7171a"><rect width="114" height="192" x="1" y="1"/></clipPath></defs><g class="layer-above"><g class="imagelayer"/><g class="shapelayer"/></g><g class="infolayer"><g class="legend" pointer-events="all" transform="translate(494.8,317.6)"><rect class="bg" shape-rendering="crispEdges" style="stroke: rgb(204, 204, 204); stroke-opacity: 1; fill: rgb(255, 255, 255); fill-opacity: 0.85; stroke-width: 1px;" width="115" height="193" x="0.5" y="0.5"/><g class="scrollbox" transform="" clip-path="url(#legende7171a)"><text class="legendtitletext" text-anchor="start" x="3" y="24.400000000000002" style="font-family: Arial; font-size: 18px; fill: rgb(42, 63, 95); fill-opacity: 1; white-space: pre;"><tspan style="font-weight:bold">IUCN Status</tspan></text><g class="groups"><g class="traces" transform="translate(1,42.6)" style="opacity: 1;"><text class="legendtext" text-anchor="start" x="40" y="7.0200000000000005" style="font-family: Arial; font-size: 18px; fill: rgb(42, 63, 95); fill-opacity: 1; white-space: pre;">1 : 1 line</text><g class="layers" style="opacity: 1;"><g class="legendfill"/><g class="legendlines"><path class="js-line" d="M5,0h30" style="fill: none; stroke: rgb(136, 136, 136); stroke-opacity: 1; stroke-dasharray: 9px, 9px; stroke-width: 1.5px;"/></g><g class="legendsymbols"><g class="legendpoints"/></g></g><rect class="legendtoggle" x="0" y="-13.200000000000001" width="108.046875" height="26.400000000000002" style="fill: rgb(0, 0, 0); fill-opacity: 0;"/></g><g class="traces" transform="translate(1,69)" style="opacity: 1;"><text class="legendtext" text-anchor="start" x="40" y="7.0200000000000005" style="font-family: Arial; font-size: 18px; fill: rgb(42, 63, 95); fill-opacity: 1; white-space: pre;">LC</text><g class="layers" style="opacity: 1;"><g class="legendfill"/><g class="legendlines"/><g class="legendsymbols"><g class="legendpoints"><path class="scatterpts" transform="translate(20,0)" d="M-5.77,-2.5H5.77L0,5Z" style="opacity: 0.9; stroke-width: 0.8px; fill: rgb(96, 198, 89); fill-opacity: 1; stroke: rgb(0, 0, 0); stroke-opacity: 0.45;"/></g></g></g><rect class="legendtoggle" x="0" y="-13.200000000000001" width="108.046875" height="26.400000000000002" style="fill: rgb(0, 0, 0); fill-opacity: 0;"/></g><g class="traces" transform="translate(1,95.4)" style="opacity: 1;"><text class="legendtext" text-anchor="start" x="40" y="7.0200000000000005" style="font-family: Arial; font-size: 18px; fill: rgb(42, 63, 95); fill-opacity: 1; white-space: pre;">NT</text><g class="layers" style="opacity: 1;"><g class="legendfill"/><g class="legendlines"/><g class="legendsymbols"><g class="legendpoints"><path class="scatterpts" transform="translate(20,0)" d="M-5.77,2.5H5.77L0,-5Z" style="opacity: 0.9; stroke-width: 0.8px; fill: rgb(204, 226, 38); fill-opacity: 1; stroke: rgb(0, 0, 0); stroke-opacity: 0.45;"/></g></g></g><rect class="legendtoggle" x="0" y="-13.200000000000001" width="108.046875" height="26.400000000000002" style="fill: rgb(0, 0, 0); fill-opacity: 0;"/></g><g class="traces" transform="translate(1,121.80000000000001)" style="opacity: 1;"><text class="legendtext" text-anchor="start" x="40" y="7.0200000000000005" style="font-family: Arial; font-size: 18px; fill: rgb(42, 63, 95); fill-opacity: 1; white-space: pre;">VU</text><g class="layers" style="opacity: 1;"><g class="legendfill"/><g class="legendlines"/><g class="legendsymbols"><g class="legendpoints"><path class="scatterpts" transform="translate(20,0)" d="M6.5,0L0,6.5L-6.5,0L0,-6.5Z" style="opacity: 0.9; stroke-width: 0.8px; fill: rgb(249, 232, 20); fill-opacity: 1; stroke: rgb(0, 0, 0); stroke-opacity: 0.45;"/></g></g></g><rect class="legendtoggle" x="0" y="-13.200000000000001" width="108.046875" height="26.400000000000002" style="fill: rgb(0, 0, 0); fill-opacity: 0;"/></g><g class="traces" transform="translate(1,148.2)" style="opacity: 1;"><text class="legendtext" text-anchor="start" x="40" y="7.0200000000000005" style="font-family: Arial; font-size: 18px; fill: rgb(42, 63, 95); fill-opacity: 1; white-space: pre;">EN</text><g class="layers" style="opacity: 1;"><g class="legendfill"/><g class="legendlines"/><g class="legendsymbols"><g class="legendpoints"><path class="scatterpts" transform="translate(20,0)" d="M5,5H-5V-5H5Z" style="opacity: 0.9; stroke-width: 0.8px; fill: rgb(252, 127, 63); fill-opacity: 1; stroke: rgb(0, 0, 0); stroke-opacity: 0.45;"/></g></g></g><rect class="legendtoggle" x="0" y="-13.200000000000001" width="108.046875" height="26.400000000000002" style="fill: rgb(0, 0, 0); fill-opacity: 0;"/></g><g class="traces" transform="translate(1,174.6)" style="opacity: 1;"><text class="legendtext" text-anchor="start" x="40" y="7.0200000000000005" style="font-family: Arial; font-size: 18px; fill: rgb(42, 63, 95); fill-opacity: 1; white-space: pre;">CR</text><g class="layers" style="opacity: 1;"><g class="legendfill"/><g class="legendlines"/><g class="legendsymbols"><g class="legendpoints"><path class="scatterpts" transform="translate(20,0)" d="M5,0A5,5 0 1,1 0,-5A5,5 0 0,1 5,0Z" style="opacity: 0.9; stroke-width: 0.8px; fill: rgb(216, 30, 5); fill-opacity: 1; stroke: rgb(0, 0, 0); stroke-opacity: 0.45;"/></g></g></g><rect class="legendtoggle" x="0" y="-13.200000000000001" width="108.046875" height="26.400000000000002" style="fill: rgb(0, 0, 0); fill-opacity: 0;"/></g></g></g><rect class="scrollbar" rx="20" ry="3" width="0" height="0" style="fill: rgb(128, 139, 164); fill-opacity: 1;" x="0" y="0"/></g><g class="g-gtitle"><text class="gtitle" x="350" y="35" text-anchor="middle" dy="0em" style="opacity: 1; font-family: Arial; font-size: 18px; fill: rgb(34, 34, 34); fill-opacity: 1; white-space: pre;">Actual vs Predicted: F​<tspan style="font-size:70%" dy="0.3em">ROH</tspan><tspan dy="-0.21em">​</tspan> (%)</text></g><g class="g-xtitle"><text class="xtitle" x="365" y="591.1" text-anchor="middle" style="opacity: 1; font-family: Arial; font-size: 18px; fill: rgb(42, 63, 95); fill-opacity: 1; white-space: pre;">Actual F​<tspan style="font-size:70%" dy="0.3em">ROH</tspan><tspan dy="-0.21em">​</tspan> (%)</text></g><g class="g-ytitle"><text class="ytitle" transform="rotate(-90,35.95,310)" x="35.95" y="310" text-anchor="middle" style="opacity: 1; font-family: Arial; font-size: 18px; fill: rgb(42, 63, 95); fill-opacity: 1; white-space: pre;">Predicted F​<tspan style="font-size:70%" dy="0.3em">ROH</tspan><tspan dy="-0.21em">​</tspan> (%)</text></g><g class="annotation" data-index="0" style="opacity: 1;"><g class="annotation-text-g" transform="rotate(0,153,110.00000000000003)"><g class="cursor-pointer" transform="translate(100,94)"><rect class="bg" x="0.5" y="0.5" width="106" height="31" style="stroke-width: 1px; stroke: rgb(204, 204, 204); stroke-opacity: 1; fill: rgb(255, 255, 255); fill-opacity: 1;"/><text class="annotation-text" text-anchor="middle" x="53.28125" y="22" style="font-family: Arial; font-size: 18px; fill: rgb(42, 63, 95); fill-opacity: 1; white-space: pre;"><tspan style="font-weight:bold">R² = 0.3955</tspan></text></g></g></g></g></svg>